<svg width="1024" height="1024" viewBox="0 0 1024 1024" fill="none" xmlns="http://www.w3.org/2000/svg">
<rect width="1024" height="1024" rx="512" fill="url(#paint0_linear_741_1016)"/>
<path d="M593.161 569.218C602.53 569.218 611.315 567.462 619.513 563.948C627.712 560.434 634.886 555.603 641.035 549.454C647.184 543.305 652.015 536.131 655.529 527.932C659.043 519.733 660.8 510.949 660.8 501.579C660.8 492.209 659.043 483.425 655.529 475.226C652.015 467.028 647.184 459.854 641.035 453.705C634.886 447.556 627.712 442.724 619.513 439.211C611.315 435.697 602.53 433.94 593.161 433.94H413.521C404.151 433.94 395.367 435.697 387.168 439.211C378.97 442.724 371.796 447.556 365.647 453.705C359.498 459.854 354.666 467.028 351.153 475.226C347.639 483.425 345.882 492.209 345.882 501.579C345.882 510.949 347.639 519.733 351.153 527.932C354.666 536.131 359.498 543.305 365.647 549.454C371.796 555.603 378.97 560.434 387.168 563.948C395.367 567.462 404.151 569.218 413.521 569.218H475.451C460.81 584.152 450.708 601.72 445.145 621.924H413.521C396.831 621.924 381.166 618.85 366.525 612.701C352.178 606.259 339.44 597.621 328.314 586.787C317.48 575.66 308.842 562.923 302.4 548.575C296.251 533.935 293.176 518.269 293.176 501.579C293.176 484.889 296.251 469.224 302.4 454.583C308.842 439.943 317.48 427.205 328.314 416.371C339.44 405.537 352.178 397.046 366.525 390.897C381.166 384.455 396.831 381.234 413.521 381.234H593.161C609.851 381.234 625.516 384.455 640.157 390.897C654.797 397.046 667.534 405.537 678.368 416.371C689.495 427.205 698.133 439.943 704.282 454.583C710.724 469.224 713.945 484.889 713.945 501.579C713.945 518.269 710.724 533.935 704.282 548.575C698.133 562.923 689.495 575.66 678.368 586.787C667.534 597.621 654.797 606.259 640.157 612.701C625.516 618.85 609.851 621.924 593.161 621.924H566.368C556.998 621.924 548.946 625.145 542.212 631.587C535.77 638.322 532.549 646.374 532.549 655.744H479.843C479.843 643.739 482.039 632.465 486.431 621.924C491.116 611.383 497.265 602.306 504.878 594.693C512.784 586.787 522.008 580.638 532.549 576.246C543.09 571.561 554.363 569.218 566.368 569.218H593.161Z" fill="#FCF6E4"/>
<defs>
<linearGradient id="paint0_linear_741_1016" x1="512" y1="0" x2="512" y2="1024" gradientUnits="userSpaceOnUse">
<stop stop-color="#004C7F"/>
<stop offset="1" stop-color="#001D31"/>
</linearGradient>
</defs>
</svg>
