<svg width="1024" height="1024" viewBox="0 0 1024 1024" fill="none" xmlns="http://www.w3.org/2000/svg">
<path d="M227.499 550.836C233.96 550.836 240.018 549.624 245.671 547.201C251.324 544.778 256.271 541.447 260.511 537.207C264.751 532.967 268.083 528.02 270.505 522.367C272.928 516.713 274.14 510.656 274.14 504.195C274.14 497.734 272.928 491.677 270.505 486.024C268.083 480.37 264.751 475.424 260.511 471.184C256.271 466.944 251.324 463.612 245.671 461.189C240.018 458.766 233.96 457.555 227.499 457.555H103.63C97.1689 457.555 91.1117 458.766 85.4584 461.189C79.805 463.612 74.8583 466.944 70.6183 471.184C66.3782 475.424 63.0468 480.37 60.6239 486.024C58.201 491.677 56.9896 497.734 56.9896 504.195C56.9896 510.656 58.201 516.713 60.6239 522.367C63.0468 528.02 66.3782 532.967 70.6183 537.207C74.8583 541.447 79.805 544.778 85.4584 547.201C91.1117 549.624 97.1689 550.836 103.63 550.836H146.333C136.238 561.133 129.272 573.247 125.436 587.179H103.63C92.1213 587.179 81.3193 585.059 71.224 580.819C61.3306 576.377 52.5477 570.42 44.8752 562.95C37.4047 555.278 31.4485 546.495 27.0065 536.601C22.7665 526.506 20.6465 515.704 20.6465 504.195C20.6465 492.687 22.7665 481.885 27.0065 471.789C31.4485 461.694 37.4047 452.911 44.8752 445.441C52.5477 437.97 61.3306 432.115 71.224 427.875C81.3193 423.433 92.1213 421.212 103.63 421.212H227.499C239.008 421.212 249.81 423.433 259.905 427.875C270.001 432.115 278.784 437.97 286.254 445.441C293.927 452.911 299.883 461.694 304.123 471.789C308.565 481.885 310.786 492.687 310.786 504.195C310.786 515.704 308.565 526.506 304.123 536.601C299.883 546.495 293.927 555.278 286.254 562.95C278.784 570.42 270.001 576.377 259.905 580.819C249.81 585.059 239.008 587.179 227.499 587.179H209.025C202.564 587.179 197.012 589.4 192.368 593.842C187.926 598.485 185.705 604.038 185.705 610.499H149.362C149.362 602.221 150.876 594.447 153.905 587.179C157.135 579.91 161.375 573.651 166.625 568.401C172.076 562.95 178.436 558.71 185.705 555.681C192.973 552.451 200.747 550.836 209.025 550.836H227.499Z" fill="#FCF6E4"/>
<path d="M364.261 590.524C358.141 590.524 352.394 589.405 347.021 587.166C341.647 584.778 336.945 581.643 332.915 577.762C329.034 573.732 325.9 569.03 323.511 563.656C321.272 558.283 320.153 552.536 320.153 546.416V502.308H347.021V546.416C347.021 551.193 348.663 555.298 351.947 558.731C355.38 562.015 359.485 563.656 364.261 563.656H411.504C416.28 563.656 420.311 562.015 423.594 558.731C426.878 555.298 428.52 551.193 428.52 546.416V502.308H455.612V546.416C455.612 552.536 454.418 558.283 452.03 563.656C449.791 569.03 446.656 573.732 442.626 577.762C438.596 581.643 433.894 584.778 428.52 587.166C423.147 589.405 417.475 590.524 411.504 590.524H364.261ZM491.768 490.889H464.9V475.216H491.768V490.889ZM464.9 502.308H491.768V590.524H464.9V502.308ZM609.038 590.524L578.139 559.626H531.344V590.524H504.476V475.216H531.344V533.206H578.139L609.038 502.308H646.653L602.321 546.416L646.653 590.524H609.038ZM670.942 590.524V433.795H683.481V504.995H782.668V433.795H795.43V590.524H782.668V516.19H683.481V590.524H670.942ZM820.731 478.575L862.6 571.269C864.168 574.851 863.72 579.777 863.72 583.584H866.63C866.63 579.777 866.183 574.851 867.75 571.269L909.619 478.575H920.814L872.228 590.301C869.317 597.241 866.63 602.839 863.496 610.004C854.54 631.722 848.942 646.499 828.344 646.499H813.118V635.528H826.329C840.21 635.528 842.673 627.692 849.614 612.467L858.794 591.868L809.536 478.575H820.731ZM946.234 489.994C955.414 477.679 963.698 475.216 990.118 475.216V486.635C965.489 486.635 942.427 494.248 942.427 525.37V590.524H930.785V478.575H942.427V489.098C942.427 493.352 940.412 498.726 939.069 502.98L941.756 503.875C943.099 499.621 943.771 493.8 946.234 489.994Z" fill="#FCF6E4"/>
</svg>
